<svg width="740" height="146" viewBox="0 0 740 146" fill="none" xmlns="http://www.w3.org/2000/svg">
<path fill-rule="evenodd" clip-rule="evenodd" d="M56.8239 12.1271C56.8239 5.43538 62.2675 0 68.9979 0C75.7284 0 81.1719 5.42256 81.1719 12.1271V83.2614C81.1719 89.953 75.7284 95.3884 68.9979 95.3884C62.2803 95.3884 56.8239 89.9659 56.8239 83.2614V12.1271ZM0.498419 12.1279C0.498419 5.42338 5.95485 0.000816854 12.6724 0.000816854C19.4029 0.000816854 24.8593 5.42338 24.8465 12.1279V121.651H83.7594C90.4511 121.651 95.8864 127.095 95.8864 133.825C95.8864 140.556 90.4639 145.999 83.7594 145.999H12.8146C12.7673 146 12.7199 146 12.6724 146C12.5919 146 12.5115 145.999 12.4313 145.998C9.21474 145.947 6.30002 144.639 4.15645 142.539C1.91618 140.355 0.518839 137.315 0.498641 133.947C0.498245 133.906 0.498047 133.866 0.498047 133.825C0.498047 133.793 0.498171 133.761 0.498419 133.729V12.1279ZM125.327 0C118.596 0 113.153 5.43538 113.153 12.1271V83.2614C113.153 89.9659 118.609 95.3884 125.327 95.3884C132.057 95.3884 137.501 89.953 137.501 83.2614V12.1271C137.501 5.42256 132.057 0 125.327 0Z" fill="url(#paint0_linear_1_208)"/>
<path d="M669.272 126.297V114.627L705.376 77.2204C709.232 73.1567 712.41 69.5967 714.91 66.5402C717.446 63.449 719.339 60.5142 720.589 57.7356C721.84 54.957 722.465 52.0047 722.465 48.8788C722.465 45.3361 721.631 42.2797 719.964 39.7095C718.297 37.1046 716.022 35.1075 713.139 33.7182C710.256 32.2941 707.009 31.5821 703.397 31.5821C699.576 31.5821 696.242 32.3636 693.394 33.9266C690.546 35.4895 688.358 37.695 686.829 40.5431C685.301 43.3911 684.537 46.7254 684.537 50.546H669.168C669.168 44.051 670.661 38.3723 673.648 33.5098C676.635 28.6473 680.734 24.8788 685.944 22.2044C691.154 19.4953 697.075 18.1407 703.709 18.1407C710.413 18.1407 716.317 19.4779 721.423 22.1523C726.563 24.792 730.575 28.4041 733.457 32.9888C736.34 37.5387 737.782 42.6791 737.782 48.41C737.782 52.3694 737.035 56.2421 735.541 60.0279C734.083 63.8137 731.53 68.0337 727.883 72.6878C724.236 77.3072 719.165 82.9165 712.67 89.5156L691.466 111.71V112.491H739.501V126.297H669.272Z" fill="white"/>
<path d="M596.723 126.297V19.5997H612.822V112.439H661.169V126.297H596.723Z" fill="white"/>
<path d="M557.294 19.5997V126.297H535.1V19.5997H557.294Z" fill="white"/>
<path d="M481.618 127.809C476.513 127.809 471.963 126.923 467.969 125.152C463.974 123.346 460.814 120.689 458.487 117.181C456.194 113.638 455.048 109.227 455.048 103.948C455.048 99.5021 455.864 95.7684 457.497 92.7467C459.129 89.7249 461.352 87.2937 464.165 85.4529C466.979 83.6121 470.174 82.2228 473.751 81.285C477.364 80.3472 481.149 79.6873 485.109 79.3053C489.763 78.819 493.514 78.3675 496.362 77.9507C499.21 77.4992 501.277 76.8393 502.562 75.9709C503.847 75.1026 504.49 73.8175 504.49 72.1157V71.8031C504.49 68.5035 503.448 65.9507 501.364 64.1446C499.314 62.3385 496.397 61.4355 492.611 61.4355C488.617 61.4355 485.439 62.3211 483.077 64.0925C480.715 65.8291 479.152 68.0173 478.388 70.6569L457.861 68.9898C458.903 64.1272 460.953 59.9246 464.009 56.3819C467.065 52.8045 471.008 50.0606 475.835 48.1504C480.698 46.2053 486.325 45.2328 492.715 45.2328C497.161 45.2328 501.416 45.7538 505.479 46.7958C509.578 47.8378 513.207 49.4528 516.368 51.641C519.563 53.8291 522.081 56.6424 523.922 60.0809C525.763 63.4847 526.683 67.5657 526.683 72.3241V126.298H505.636V115.201H505.011C503.725 117.702 502.006 119.907 499.853 121.818C497.699 123.693 495.112 125.169 492.09 126.246C489.068 127.288 485.578 127.809 481.618 127.809ZM487.974 112.492C491.239 112.492 494.122 111.849 496.623 110.564C499.123 109.245 501.086 107.473 502.51 105.25C503.934 103.027 504.646 100.509 504.646 97.696V89.204C503.951 89.6555 502.996 90.0723 501.78 90.4543C500.6 90.8016 499.262 91.1316 497.769 91.4442C496.275 91.7221 494.782 91.9825 493.288 92.2257C491.795 92.4341 490.44 92.6251 489.225 92.7988C486.62 93.1808 484.345 93.7886 482.4 94.6222C480.455 95.4558 478.944 96.5846 477.867 98.0086C476.791 99.3979 476.252 101.135 476.252 103.218C476.252 106.24 477.346 108.55 479.534 110.148C481.757 111.711 484.571 112.492 487.974 112.492Z" fill="white"/>
<path d="M453.145 46.2747V62.9462H404.954V46.2747H453.145ZM415.895 27.1024H438.088V101.707C438.088 103.757 438.401 105.354 439.026 106.5C439.651 107.612 440.52 108.393 441.631 108.845C442.777 109.296 444.097 109.522 445.591 109.522C446.633 109.522 447.675 109.435 448.717 109.262C449.759 109.053 450.557 108.897 451.113 108.793L454.604 125.308C453.492 125.655 451.929 126.055 449.915 126.506C447.9 126.993 445.452 127.288 442.569 127.392C437.22 127.6 432.531 126.888 428.502 125.256C424.508 123.624 421.4 121.088 419.177 117.65C416.954 114.211 415.86 109.87 415.895 104.625V27.1024Z" fill="white"/>
<path d="M368.17 127.861C359.939 127.861 352.853 126.194 346.914 122.86C341.01 119.491 336.46 114.732 333.264 108.585C330.069 102.402 328.471 95.0911 328.471 86.6511C328.471 78.4196 330.069 71.1952 333.264 64.9782C336.46 58.7611 340.957 53.9159 346.758 50.4427C352.593 46.9695 359.435 45.2328 367.285 45.2328C372.564 45.2328 377.478 46.0838 382.028 47.7857C386.613 49.4528 390.607 51.9709 394.011 55.3399C397.45 58.709 400.124 62.9463 402.034 68.052C403.944 73.1229 404.9 79.0621 404.9 85.8697V91.9652H337.328V78.2112H384.008C384.008 75.0158 383.314 72.1851 381.924 69.7191C380.535 67.2531 378.607 65.3255 376.141 63.9362C373.71 62.5122 370.879 61.8002 367.649 61.8002C364.28 61.8002 361.293 62.5816 358.688 64.1446C356.118 65.6728 354.104 67.7394 352.645 70.3443C351.186 72.9145 350.439 75.7799 350.405 78.9406V92.0173C350.405 95.9767 351.134 99.3979 352.593 102.281C354.086 105.163 356.188 107.386 358.897 108.949C361.606 110.512 364.819 111.294 368.535 111.294C371.001 111.294 373.259 110.946 375.308 110.252C377.357 109.557 379.111 108.515 380.57 107.126C382.028 105.737 383.14 104.035 383.904 102.02L404.431 103.375C403.389 108.307 401.253 112.614 398.023 116.295C394.827 119.942 390.694 122.79 385.623 124.839C380.587 126.854 374.769 127.861 368.17 127.861Z" fill="white"/>
<path d="M206.676 19.5997H234.496L263.88 91.2872H265.13L294.514 19.5997H322.334V126.297H300.453V56.8501H299.567L271.955 125.776H257.055L229.443 56.5896H228.557V126.297H206.676V19.5997Z" fill="white"/>
<defs>
<linearGradient id="paint0_linear_1_208" x1="0.498047" y1="72.9999" x2="137.501" y2="9.7052e-05" gradientUnits="userSpaceOnUse">
<stop stop-color="#4400E2"/>
<stop offset="0.421875" stop-color="#F94E6C"/>
<stop offset="1" stop-color="#FFCB00"/>
</linearGradient>
</defs>
</svg>
